# xmcd
#
# Track frame offsets:
#	150
#	16841
#	30791
#	46691
#	60191
#	75563
#	91693
#	106508
#	120853
#	133055
#	148675
#	163750
#	177878
#	191678
#	206428
#	221243
#	237068
#	254457
#	272993
#	288216
#	304592
#	320567
#	339423
#
# Disc length: 4727 seconds
#
# Revision: 1
# Processed by: cddbd v1.5.2PL0 Copyright (c) Steve Scherf et al.
# Submitted via: EasyCDDAExtractor 12.0.0.1
#
DISCID=2b127517
DTITLE=Ricchi e Poveri - Greatest Hits [CD2)
DYEAR=1900
DGENRE=
TTITLE0=Mami Mami
TTITLE1=Sarà perchè ti amo
TTITLE2=Se m'innamoro
TTITLE3=Come vorrei
TTITLE4=Made in Italy
TTITLE5=Ninna Nanna
TTITLE6=Pubblicità
TTITLE7=e penso a te
TTITLE8=Questa sera
TTITLE9=Azzurro
TTITLE10=M'innamoro di te
TTITLE11=E io mi sono innamorato
TTITLE12=Buonanotte fiorellino
TTITLE13=Cocco bello Africa
TTITLE14=Alla faccia di Belzebù
TTITLE15=Dimmi quando
TTITLE16=Scende la pioggia
TTITLE17=L'anno che verrà
TTITLE18=Bello l'amore
TTITLE19=Non dire no
TTITLE20=Casa mia
TTITLE21=Voglio stringerti ancora
TTITLE22=New York
EXTD=
EXTT0=
EXTT1=
EXTT2=
EXTT3=
EXTT4=
EXTT5=
EXTT6=
EXTT7=
EXTT8=
EXTT9=
EXTT10=
EXTT11=
EXTT12=
EXTT13=
EXTT14=
EXTT15=
EXTT16=
EXTT17=
EXTT18=
EXTT19=
EXTT20=
EXTT21=
EXTT22=
PLAYORDER=
